PathFileType	4	(X/Y/Z)	Apose_0-50.trc
DataRate	CameraRate	NumFrames	NumMarkers	Units	OrigDataRate	OrigDataStartFrame	OrigNumFrames
30	30	4	22	m	30	0	50
Frame#	Time	Hip			RHip			RKnee			RAnkle			RBigToe			RSmallToe			RHeel			LHip			LKnee			LAnkle			LBigToe			LSmallToe			LHeel			Neck			Head			Nose			RShoulder			RElbow			RWrist			LShoulder			LElbow			LWrist		
		X1	Y1	Z1	X2	Y2	Z2	X3	Y3	Z3	X4	Y4	Z4	X5	Y5	Z5	X6	Y6	Z6	X7	Y7	Z7	X8	Y8	Z8	X9	Y9	Z9	X10	Y10	Z10	X11	Y11	Z11	X12	Y12	Z12	X13	Y13	Z13	X14	Y14	Z14	X15	Y15	Z15	X16	Y16	Z16	X17	Y17	Z17	X18	Y18	Z18	X19	Y19	Z19	X20	Y20	Z20	X21	Y21	Z21	X22	Y22	Z22
1	0.03333333333333333	0.06127190784456863	0.9182635854924586	0.3713882995418293	0.052773286173973005	0.8856858256687778	0.48345299207508935	0.021163515467324517	0.5099856482951872	0.502077689625027	-0.008157409871955807	0.11197011198016141	0.5171818350020382	0.19561137171930332	0.03968826112257674	0.5603104284834881	0.14091185155005426	0.03864195392738653	0.6141421291080178	-0.04827783241143604	0.05241670554455658	0.5068457105239466	0.052353880967968044	0.8881065462337563	0.26090205614695927	0.0327050021001928	0.5130766901241743	0.23081348195378143	0.00714000553834842	0.11613570132262713	0.20857728479147108	0.215564290214511	0.045304923104441806	0.18155041420416979	0.1615800627331633	0.0402414369902836	0.1303282965804027	-0.02890692225651645	0.045798621604035465	0.22688714718836897	0.05484030245234012	1.603585835488514	0.36801870152282484	0.21870994076610756	1.823376535596355	0.2807853589442864	0.2093599852781033	1.6562550115000596	0.32391304272957316	0.035459373281385265	1.492876724591669	0.5558961004987084	0.10818839625506635	1.2385094647512105	0.7306337977282523	0.18430453557495025	1.040061227912065	0.8916252076919918	0.0052867176324005	1.4799258611128205	0.16599617500854064	0.020319968286745833	1.2319023472362018	0.01283330629480961	0.08362142426954974	1.0201102877816466	-0.13738205801912692
2	0.06666666666666667	0.059518388411718234	0.9177266990196652	0.3695680057224958	0.052408006081515204	0.8828399203690759	0.4810409050861886	0.021136284643426206	0.5061959478726828	0.5020991314157897	-0.009971029287919061	0.10664880584479501	0.5198900752417133	0.19551895628005386	0.04330152445653891	0.561691804656348	0.14250691972918206	0.03793441311057977	0.6125019727898874	-0.04307306806635157	0.04115970633335508	0.5019162725831336	0.051392572501716936	0.8851587014783363	0.2588660360821294	0.03140716068335086	0.5114239558750835	0.2298758516077754	0.007177819078755926	0.1111704846765117	0.20660384087020378	0.21359793927353954	0.047555173877118925	0.18091758195976004	0.15880493655328676	0.04333652099635439	0.12548387064175856	-0.028256188246216077	0.04698482291227849	0.22736848222207925	0.05162715206595129	1.601384149359168	0.36820110290432007	0.1742825260309706	1.8051105358591555	0.33656638322188254	0.21433881122414922	1.6413581643618766	0.3251619395829418	0.032418467631509504	1.4910407041382954	0.5543487683883596	0.10577065155744284	1.2350407380979087	0.727312574637995	0.17342677007897983	1.0410080314226777	0.8973670156683033	0.00480434620252144	1.4761316417158352	0.15856038406782802	0.024058018652395124	1.2259087807672244	0.012071778715381882	0.07853730440388042	1.0251001778926936	-0.1336271618987433
3	0.1	0.04827689412854924	0.920243156250965	0.36686271184142644	0.038783774273672966	0.885497765822188	0.47595796965146	0.011566186100539812	0.5090261007610409	0.5020037781118746	-0.007051177091614779	0.10401059288104413	0.5190107005063099	0.20161902930725215	0.0430326949324105	0.5602343156451637	0.14292800497581565	0.03547373387271677	0.6137295529334321	-0.04766344266711706	0.04370926299084005	0.5087853953014191	0.038854283295360316	0.8891458070012759	0.2539361401829676	0.02389757426252739	0.5136239264880931	0.22760390283415902	0.011382888984566514	0.11626156060915792	0.21068614273428626	0.21890161093237437	0.0483032850217268	0.1800592503332153	0.16846493630995946	0.04660244895479228	0.12743258092037396	-0.02859595968961486	0.052268883129690594	0.22901251367443118	0.0731307014177154	1.5949926761967055	0.3705373775360757	0.2430961616153783	1.7632250724387077	0.3413019210550416	0.31410256207144044	1.6247277385328718	0.35311720178864087	0.03207587639107815	1.4927679756396641	0.5520031525201626	0.08878856696621071	1.2319270207331168	0.7340294809547975	0.14816237571157842	1.0473831261224296	0.9028636061019898	0.011214678460500348	1.4841679683409283	0.15712709056912452	0.009516398270868925	1.2316802215770193	0.0052309679150823706	0.056568792594246284	1.0184660916818515	-0.14740123381176737
4	0.13333333333333333	0.04462619267901305	0.9210572391316325	0.36357742252623054	0.03618739266484113	0.887952754179132	0.4756161236622014	0.011300053321535355	0.510015368347227	0.5026464200826257	-0.007418012163592749	0.10346122757056762	0.5171372142166011	0.20043336105581314	0.04210640694935332	0.5619889152040694	0.14287578201461174	0.04052126875032046	0.6148191932034769	-0.051142596235814256	0.0475375410371489	0.5087714370509252	0.037365971528088335	0.8901500281606854	0.2548619743285995	0.025092383332474707	0.5160782665650633	0.22543720686958402	0.002411568120180596	0.12298110794783303	0.21188891866044335	0.21624403562277147	0.045223731953576374	0.17923392034820282	0.1663580942064112	0.041717824749770906	0.12612058161514159	-0.030816352138689593	0.0513645416902725	0.22450859394203734	0.07392769639992723	1.5946795469673267	0.36877820058762417	0.24882018964767538	1.7578325820738314	0.33825761424554973	0.2394403606095045	1.582850777092512	0.3236012604234365	0.03398228149628413	1.495410271169797	0.5512326583969684	0.08530268481438828	1.2345854628143507	0.7348178488388861	0.1441918622622291	1.0493996117145665	0.903157517040948	0.012280357534317861	1.481002395874963	0.1548073648616475	0.010490636523472827	1.2299569170575384	0.004758535475714584	0.05096529341287683	1.0251021787955934	-0.14338451637076954
